<svg width="69" height="24" viewBox="0 0 69 24" fill="none" xmlns="http://www.w3.org/2000/svg">
<g clip-path="url(#clip0_3_22)">
<path fill-rule="evenodd" clip-rule="evenodd" d="M56.927 9.09927e-05C54.1948 -0.00430329 51.5457 0.939749 49.432 2.67109C47.304 0.939575 44.6434 -0.00393929 41.9 9.09927e-05C39.167 -0.0106745 36.5161 0.934137 34.406 2.67109C32.347 1.00609 29.745 9.09927e-05 26.91 9.09927e-05C24.1781 -0.00407162 21.5294 0.939967 19.416 2.67109C17.358 1.00609 14.756 9.09927e-05 11.92 9.09927e-05C5.32 9.09927e-05 0 5.30309 0 11.8841C0 18.4641 5.32 23.7681 11.921 23.7681C14.756 23.7681 17.396 22.7611 19.416 21.0971C21.474 22.7611 24.076 23.7671 26.91 23.7671C29.745 23.7671 32.385 22.7611 34.405 21.0971C36.5334 22.8285 39.1944 23.7716 41.938 23.7671C44.812 23.7671 47.413 22.7611 49.471 21.0971C51.529 22.7611 54.131 23.7671 56.966 23.7671C63.567 23.7671 68.887 18.4651 68.887 11.8841C68.848 5.34209 63.528 9.09927e-05 56.927 9.09927e-05ZM49.432 17.2261C48.3161 15.6688 47.7185 13.7999 47.724 11.8841C47.724 9.91009 48.345 8.05209 49.432 6.54209C50.5483 8.09922 51.1462 9.96818 51.141 11.8841C51.141 13.8971 50.481 15.7161 49.432 17.2261ZM34.405 17.2261C33.2887 15.669 32.6908 13.8 32.696 11.8841C32.696 9.91009 33.317 8.05209 34.405 6.54209C35.5209 8.09934 36.1185 9.96829 36.113 11.8841C36.113 13.8971 35.453 15.7161 34.405 17.2261ZM19.377 17.2261C18.2607 15.669 17.6628 13.8 17.668 11.8841C17.668 9.91009 18.29 8.05209 19.377 6.54209C20.4929 8.09934 21.0905 9.96829 21.085 11.8841C21.085 13.8971 20.425 15.7161 19.377 17.2261ZM2.602 11.8841C2.602 6.81309 6.718 2.67109 11.844 2.67109C13.8786 2.66492 15.858 3.33189 17.474 4.56809C15.882 6.58109 14.95 9.09709 14.95 11.8841C14.95 14.6321 15.882 17.1871 17.474 19.2001C15.921 20.4001 13.979 21.0971 11.844 21.0971C6.757 21.0971 2.602 16.9941 2.602 11.8841ZM21.24 19.2001C22.832 17.1871 23.764 14.6711 23.764 11.8841C23.764 9.13509 22.832 6.58109 21.24 4.56809C22.793 3.36809 24.735 2.67109 26.87 2.67109C29.006 2.67109 30.948 3.36809 32.5 4.56809C30.909 6.58109 29.977 9.09709 29.977 11.8841C29.977 14.6321 30.909 17.1871 32.501 19.2001C30.948 20.4001 29.006 21.0971 26.871 21.0971C24.735 21.0971 22.793 20.4001 21.24 19.2001ZM36.268 19.2001C37.86 17.1871 38.792 14.6711 38.792 11.8841C38.792 9.13509 37.86 6.58109 36.268 4.56809C37.821 3.36809 39.762 2.67109 41.898 2.67109C43.9326 2.66492 45.912 3.33189 47.528 4.56809C45.937 6.58109 45.005 9.09709 45.005 11.8841C45.005 14.6321 45.937 17.1871 47.529 19.2001C45.975 20.4001 44.034 21.0971 41.899 21.0971C39.8641 21.1035 37.8842 20.4365 36.268 19.2001ZM56.926 21.0971C54.8914 21.1033 52.912 20.4363 51.296 19.2001C52.887 17.1871 53.819 14.6711 53.819 11.8841C53.819 9.13509 52.887 6.58109 51.295 4.56809C52.849 3.36809 54.79 2.67109 56.925 2.67109C62.013 2.67109 66.168 6.77409 66.168 11.8841C66.168 16.9941 62.013 21.0971 56.926 21.0971Z" fill="black"/>
</g>
<defs>
<clipPath id="clip0_3_22">
<rect width="69" height="24" fill="white"/>
</clipPath>
</defs>
</svg>
