<svg width="35" height="35" viewBox="0 0 35 35" fill="none" xmlns="http://www.w3.org/2000/svg">
<g clip-path="url(#clip0_3_57)">
<path d="M34.6685 33.0958L25.6321 24.2038C27.9984 21.6328 29.4524 18.2327 29.4524 14.4912C29.4513 6.48742 22.8588 0 14.7259 0C6.59308 0 0.000610352 6.48742 0.000610352 14.4912C0.000610352 22.495 6.59308 28.9824 14.7259 28.9824C18.2399 28.9824 21.4628 27.767 23.9944 25.7463L33.0659 34.6734C33.5079 35.1088 34.2255 35.1088 34.6675 34.6734C34.7726 34.5707 34.8562 34.4481 34.9133 34.3127C34.9703 34.1772 34.9998 34.0318 34.9999 33.8848C35 33.7379 34.9707 33.5924 34.9138 33.4569C34.8569 33.3214 34.7735 33.1987 34.6685 33.0958ZM14.7259 26.7528C7.84466 26.7528 2.26631 21.2631 2.26631 14.4912C2.26631 7.71926 7.84466 2.22955 14.7259 2.22955C21.6073 2.22955 27.1856 7.71926 27.1856 14.4912C27.1856 21.2631 21.6073 26.7528 14.7259 26.7528Z" fill="black"/>
</g>
<defs>
<clipPath id="clip0_3_57">
<rect width="35" height="35" fill="white"/>
</clipPath>
</defs>
</svg>
