<svg width="27" height="27" viewBox="0 0 27 27" fill="none" xmlns="http://www.w3.org/2000/svg">
<path d="M13.4999 8.43745C13.6108 8.43733 13.7205 8.45912 13.8229 8.50154C13.9253 8.54397 14.0182 8.6062 14.0965 8.68467L22.534 17.1222C22.8637 17.4519 22.8637 17.9857 22.534 18.3152C22.2043 18.6447 21.6704 18.6449 21.3409 18.3152L13.4999 10.4743L5.65898 18.3152C5.32928 18.6449 4.7954 18.6449 4.46591 18.3152C4.13643 17.9855 4.13622 17.4516 4.46591 17.1222L12.9034 8.68467C12.9817 8.6062 13.0746 8.54397 13.177 8.50154C13.2794 8.45912 13.3891 8.43733 13.4999 8.43745Z" fill="black"/>
</svg>
